<svg id="Layer_1" data-name="Layer 1" xmlns="http://www.w3.org/2000/svg" viewBox="0 0 3141.75 795.22"><defs><style>.cls-1{fill:#d91226;}.cls-2{fill:#d90f26;}.cls-3{fill:#d90d26;}.cls-4{fill:#fff;}</style></defs><title>Artboard 1 copy 3</title><path class="cls-1" d="M132.49,680.56S208.34,738.27,308,757.79l-5,26.13S214,770.36,137.61,695a41.5,41.5,0,0,1-5.12-14.48"/><path class="cls-1" d="M329.11,762.32s96.86,24.17,191.67.77c0,0-4.2,6.77-7.71,9.28s-88.47,37.69-190,15.58Z"/><path class="cls-1" d="M422.9,712.88V713c-.3,1.49-2.85,2.58-4.36,2.47-15.1-1.06-95.5-7.27-174.4-37.46a2.88,2.88,0,0,1,2-5.41c15.16,5.44,86.93,31.53,175.31,37.35,1.8.12,1.81,1.13,1.45,2.91m-77.63-79.16c-142.81-31.22-200.22-73.29-221.23-82-4,65.84,2.26,108.55,2.26,108.55l45.12,28.84.88-2.69s68.86,39.21,151.78,56.29,158.33,9,158.33,9l-.84,3.27s38.15-3.82,53.42-8.57c0,0,21.81-32.89,44.43-97.73,0,0-80.77,14.7-234.14-15"/><path class="cls-1" d="M131.17,527.28s9.09-89,23.76-164.77c77.83,22.24,223.9,51.55,223.9,51.55l-36.9,177.4s-80.36-17.69-156.68-48.53L183.73,552Z"/><path class="cls-1" d="M404.09,419.12,365.18,597s106.14,19.71,163.25,17.69l-2.53,9.11s35.32,2.51,58.13-.51c0,0,16.68-40.94,45-159.72,0,0-126.36-22.24-224.91-44.47"/><path class="cls-1" d="M516.81,307.12c-96.89-27.31-196.35-42.25-196.35-42.25l2.83-10.57c132.45,20.1,195.84,42,195.84,42Zm-80-118.93c-131.64-28.59-231.69-20.32-231.69-20.32C171.28,276.19,162.26,328.1,162.26,328.1l56.66,10.08,2.75-9.33S321,346.91,405.22,365s177.53,39.88,177.53,39.88l-1.85,10.3,56.76,13.77s17.3-84.25,24.07-163.24c-23.32-11.29-93.28-48.89-224.91-77.48"/><path class="cls-2" d="M215.79,141.57s23.44-56.93,51.48-96.7c0,0,107.41-21.36,194.48-1.27L437.53,148.75s-74.81-18.91-159.79-17.65c-1.26,2.09-2.93,3.35-5.86,8.38-18.84.42-56.09,2.09-56.09,2.09"/><path class="cls-2" d="M478.85,47.49S574,66.1,655.18,127.76c8,21.85,8.65,109.48,8.65,109.48s-38.07-19.91-51.06-25.75l-.22-9.09s-67.07-32.46-154.26-49.33c11.69-61,20.52-105.5,20.56-105.58"/><path class="cls-2" d="M614.93,79.3a25.31,25.31,0,0,0-.86-2.82S546.15,37.15,475,21.33s-148.65-6.08-148.65-6.08L325,17,273,23.4l7-7.5C347.09-1.84,415.6-5,477.4,7.79,576.25,28.26,655,94.66,655,94.66c4.76,7.36,5.14,11.06,5.14,11.06S629,86.65,614.93,79.3"/><path class="cls-2" d="M252.79,24S176.5,61.78,146.91,80.5c0,0,37.13-13.76,69.31-17.86A495.53,495.53,0,0,1,252.79,24"/><path class="cls-2" d="M196.32,97.17s-26.62,58.22-38.32,93c0,0-59.48-12.24-91.18-10.81,0,0,18-34.55,26.23-45.36,0,0,41-24.29,103.28-36.87"/><path class="cls-2" d="M86,198.11s35.7,11.12,43.3,14.62l-5.86,25.75L69.92,249.15Z"/><path class="cls-2" d="M138.25,259.95S58.81,264.52,15.8,281.49C11.42,296.41,0,353.17,0,353.17s51.85,33.48,107.4,53.31c13.14-78.76,30.85-146.53,30.85-146.53"/><path class="cls-1" d="M44.68,397.36l43.57,30.37-3.63,26.41s-29.06,0-46.54-4.29Z"/><path class="cls-2" d="M6.39,466.68S42,475.59,96.17,478.89c-1,24.1-2.1,105-2.1,105S23.89,541.94,11,514.54c0,0-4.62-37.63-4.62-47.86"/><path class="cls-3" d="M33.28,573.13s32.19,46.38,72.31,97.31c-11.4-24.85-17.34-52.58-17.34-52.58s-9.9-4-55-44.73"/><path class="cls-2" d="M676.3,112.72S721,165.48,751.48,209c0,0-31.28-29.43-54.66-43.41,0,0-17.36-47.83-20.53-52.89"/><path class="cls-1" d="M698.44,204.46s48.72,32.26,78.78,73.39c3.79,5.7,7.22,54.09,7.22,54.09s-34.75-15.18-87.58-26.89c4.11-76.56,1.58-100.6,1.58-100.6"/><path class="cls-1" d="M713,337.33s37.33-.32,45.55,5.06c0,0,1.7,4.36-5.32,52,0,0-37.39-26.69-44.34-31.76Z"/><path class="cls-1" d="M686.41,376.46S743.69,405,789.24,445.21c0,0,.31,6.33-14.56,73.71,0,0-60.33,8.23-119.69,4,0,0,22.55-86.72,31.42-146.42"/><path class="cls-3" d="M662.69,550.56l-5.37,25.32s24,11.07,43.34,15.5c0,0,13.94-45.82,15.2-51.39Z"/><path class="cls-1" d="M634.37,594s61,20.45,88.2,24.71c0,0-17.53,35.91-26.72,45.11,0,0-27.54,18.42-100.81,26.59,0,0,30.14-62.79,39.34-96.4"/><path class="cls-3" d="M586.67,722.94s12.93,1.73,70.67-19.24c0,0-51.49,31.6-108,61,0,0,26.17-24.85,37.38-41.8"/><path class="cls-4" d="M1219.3,295.48l-28,87.4h56.34L1228.39,443H1063.27c-8.15-4.57-17.86-24.5,6.78-100.11,24.75-75.88,75.72-95.94,104.13-101.17a159.11,159.11,0,0,1,20.72-1.31V240h231.45l35.52-110.93H1194.45v.34c-13.49-.33-72.41-.31-124.66,22.51C1009.92,178.07,961,247.29,924.52,357.64,912.47,394.07,875.78,504.92,972.6,544c25.94,10.47,45.19,10.33,62.49,10.33l290.63,0,82.88-258.85Z"/><path class="cls-4" d="M2004.87,128.74H1506.44L1370.29,554h133l101.3-316.37h79.18a22,22,0,0,1,21,28.74L1612.64,554h133l101.29-316.37h82.25a22,22,0,0,1,21,28.74L1858,554h68.82a87.9,87.9,0,0,0,83.71-61.1l79.3-247.69c18.44-57.6-24.52-116.47-85-116.47"/><path class="cls-4" d="M3053,128.74H2707.92L2571.77,554h133l101.08-315.71H2976.3a22,22,0,0,1,21,28.75l-91.88,287h68.82a87.9,87.9,0,0,0,83.7-61.1l79.53-248.4c18.33-57.25-24.38-115.75-84.48-115.75"/><path class="cls-4" d="M2363.44,457.16H2201.07L2227.71,374H2403.1s32.87,0,32.87,19.93-23.71,63.28-72.54,63.28m82.24-231.6c6.31.07,28.16,1.1,28.16,12.05,0,12.79-11,63.61-70.74,63.61H2251l24.22-75.66Zm91.93,106.55s73.73-27.9,73.73-125.54c0-72.74-95.91-77.83-95.91-77.83l-.82.41.15-.41h-341.5L2037.11,554h364.57q1.62,0,3.25-.13c18.18-1.49,165.57-18.17,165.57-164.95,0-39.86-32.88-56.8-32.88-56.8"/><path class="cls-4" d="M999.4,680.82l9.18-1.82v-1.38c0-4.74-1-8-2.83-9.69s-5.24-2.58-10.08-2.58H960q-7.47,0-10.18,2.72t-2.73,10.3v29c0,5,.91,8.49,2.73,10.29s5.2,2.72,10.18,2.72h35.64c5,0,8.37-.89,10.17-2.72s2.74-5.25,2.74-10.29V689.55H977.11v7H999.4v16.12H956.31v-40H999.4Zm85.82,39.58v-7.68H1043.5V665.35h-9.18v55Zm21.37-13c0,5,.91,8.49,2.74,10.29s5.21,2.72,10.19,2.72h38.15c5,0,8.37-.89,10.15-2.72s2.68-5.25,2.68-10.29v-29q0-7.59-2.68-10.3t-10.15-2.72h-38.15c-5,0-8.39.91-10.19,2.72s-2.74,5.24-2.74,10.3Zm9.18-34.67h45.54v40h-45.54ZM1238,720.39q15.23,0,15.24-10.76v-7c0-6.42-3.13-10-9.39-10.79q9.07-1.16,9.07-9.38V676c0-3.77-.93-6.5-2.77-8.17s-4.79-2.51-8.83-2.51H1197v55Zm0-32.43h-31.79V672.71H1238a7.67,7.67,0,0,1,4.32,1c.88.65,1.34,1.92,1.34,3.85v5.55c0,3.25-1.89,4.9-5.66,4.9m4.74,23.47q-1.32,1.39-4.74,1.39h-31.79V695.1H1238c2.28,0,3.86.47,4.74,1.39s1.34,2.66,1.34,5.22v4.6c0,2.5-.45,4.2-1.34,5.12m37.85,9,7-13.55h37.23l7,13.55h10.14l-30.62-55h-9.82l-30.07,55Zm25.7-48.76,14.84,28.17h-29.65Zm108,48.76v-7.68h-41.72V665.35h-9.17v55ZM1479.75,682l21.88,29.77H1504l21-30.63a41.23,41.23,0,0,0,3.31-6l-.42,8.1v37.13h8.53v-55h-8.53l-25,35.84-26.78-35.84h-7.46v55h7.79V683.27a62.55,62.55,0,0,0-.43-8.1,49,49,0,0,0,3.73,6.82M1563,707.38c0,5,.9,8.49,2.72,10.29s5.22,2.72,10.21,2.72h38.16c5,0,8.37-.89,10.15-2.72s2.66-5.25,2.66-10.29v-29q0-7.59-2.66-10.3c-1.79-1.81-5.18-2.72-10.15-2.72h-38.16q-7.47,0-10.21,2.72t-2.72,10.3Zm9.17-34.67h45.55v40h-45.55Zm81.25-7.36v42c0,5,.91,8.49,2.73,10.29s5.21,2.72,10.2,2.72h32.7c5,0,8.38-.89,10.16-2.72s2.67-5.25,2.67-10.29v-42h-9.17v47.37H1662.6V665.35Zm94,55V688a96.62,96.62,0,0,0-.64-12.06,17.83,17.83,0,0,0,2.87,3.74c.21.22,1.1,1,2.68,2.46l42.35,38.3h5.12v-55h-8.54v30.19a83.44,83.44,0,0,0,.88,13.55,53,53,0,0,0-6.31-6.94l-41.17-36.79h-5.77v55Zm132.16-47.58v-7.47H1820v7.47h25.17v47.58h9.17V672.81Zm11.55,47.58,7-13.55h37.25l7,13.55h10.13l-30.61-55h-9.82l-30.08,55Zm25.72-48.76,14.83,28.17H1902Zm66.23-6.29h-9.19v55h9.19Zm35.53,55V688a90.09,90.09,0,0,0-.65-12.06,19.22,19.22,0,0,0,2.89,3.74l2.66,2.46,42.37,38.3H2071v-55h-8.54v30.19a81.59,81.59,0,0,0,.88,13.55,52.36,52.36,0,0,0-6.3-6.94l-41.18-36.79h-5.76v55Zm157.49,0q15.23,0,15.22-10.76v-7c0-6.42-3.13-10-9.38-10.79,6-.77,9.05-3.9,9.05-9.38V676c0-3.77-.91-6.5-2.76-8.17s-4.78-2.51-8.84-2.51h-44.29v55Zm0-32.43h-31.8V672.71h31.8a7.58,7.58,0,0,1,4.31,1c.89.65,1.34,1.92,1.34,3.85v5.55c0,3.25-1.88,4.9-5.65,4.9m4.77,23.47c-.92.93-2.49,1.39-4.77,1.39h-31.8V695.1h31.8c2.28,0,3.85.47,4.77,1.39s1.33,2.66,1.33,5.22v4.6c0,2.5-.46,4.2-1.33,5.12m44.93-46.09h-9.19v55h9.19Zm36.17,55V695.65l36.79,24.74h15.36l-44.26-28.69,39.89-26.36h-13.43L2262,688.92V665.35h-9.19v55Zm126.27,0v-7.57h-44.28v-17.5h26.78v-7.25h-26.78V672.71h43.85v-7.36h-53v55Zm66,0V688a96.77,96.77,0,0,0-.64-12.06,17.9,17.9,0,0,0,2.88,3.74c.21.22,1.1,1,2.66,2.46l42.35,38.3h5.13v-55h-8.55v30.19a85.5,85.5,0,0,0,.88,13.55,53,53,0,0,0-6.31-6.94l-41.16-36.79h-5.79v55Zm132.8,0v-7.57H2542.8v-17.5h26.79v-7.25H2542.8V672.71h43.84v-7.36h-53v55Zm76.19-47.58v-7.47h-59.63v7.47h25.18v47.58H2638V672.81ZM2705,720.39l15.81-41.6,15.25,41.6h6.83l19.95-55h-8.21l-15,43.73-15.67-43.73h-5.65L2702,709.08l-14.93-43.73h-9.28l19.94,55Zm77.61-13c0,5,.9,8.49,2.72,10.29s5.21,2.72,10.21,2.72h38.15c5,0,8.38-.89,10.15-2.72s2.67-5.25,2.67-10.29v-29q0-7.59-2.67-10.3c-1.78-1.81-5.17-2.72-10.15-2.72h-38.15q-7.5,0-10.21,2.72t-2.72,10.3Zm9.18-34.67h45.54v40H2791.8Zm90.45,47.68V699h16.18l22.37,21.43h13.66L2909.29,699h8.07q6.08,0,8.85-2.52c1.86-1.67,2.76-4.39,2.76-8.15V676c0-3.77-.9-6.5-2.76-8.17s-4.8-2.51-8.85-2.51h-44.27v55Zm36.23-46.67c.89.82,1.32,2.3,1.32,4.43v8c0,2.2-.44,3.7-1.32,4.48s-2.45,1.17-4.65,1.17h-31.58v-19.3h31.58c2.2,0,3.75.41,4.65,1.23m47.57,46.67V695.65l36.8,24.74h15.36l-44.27-28.69,39.88-26.36h-13.42l-34.36,23.57V665.35h-9.18v55Z"/></svg>